PathFileType	4	(X/Y/Z)	C:\Users\Basilio\Documents\Thesis Gigler\squatting_fais\c3dfiles\058\SLS_back_pre1\markers_experimental.trc
DataRate	CameraRate	NumFrames	NumMarkers	Units	OrigDataRate	OrigDataStartFrame	OrigNumFrames
200.000000	200.000000	4	60	mm	200.000000	911	1215
Frame#	Time	FHD			LBHD			RBHD			C7			T10			CLAV			LSHO			LUUPA			LMUPA			LDUPA			LLEP			LMEP			LUL			LRFIN			RSHO			RUPA1			RMUPA			RDUPA			RLEP			RMEP			RRAD			RUL			RUFIN			LASI			RASI			USACR			LSACR			RSACR			LTHI1			LTHI2			LTHI3			LTHI4			LLFC			LMFC			LTIB1			LTIB2			LTIB3			LTIB4			LLMAL			LMMAL			LHEE			LMT1			LMT5			RTHI			RTHI2			RTHI3			RTHI4			RLFC			RMFC			RTIB1			RTIB2			RTIB3			RTIB4			RLMAL			RMMAL			RHEE			RMT1			RMT2			RMT5			LMT2			
		X1	Y1	Z1	X2	Y2	Z2	X3	Y3	Z3	X4	Y4	Z4	X5	Y5	Z5	X6	Y6	Z6	X7	Y7	Z7	X8	Y8	Z8	X9	Y9	Z9	X10	Y10	Z10	X11	Y11	Z11	X12	Y12	Z12	X13	Y13	Z13	X14	Y14	Z14	X15	Y15	Z15	X16	Y16	Z16	X17	Y17	Z17	X18	Y18	Z18	X19	Y19	Z19	X20	Y20	Z20	X21	Y21	Z21	X22	Y22	Z22	X23	Y23	Z23	X24	Y24	Z24	X25	Y25	Z25	X26	Y26	Z26	X27	Y27	Z27	X28	Y28	Z28	X29	Y29	Z29	X30	Y30	Z30	X31	Y31	Z31	X32	Y32	Z32	X33	Y33	Z33	X34	Y34	Z34	X35	Y35	Z35	X36	Y36	Z36	X37	Y37	Z37	X38	Y38	Z38	X39	Y39	Z39	X40	Y40	Z40	X41	Y41	Z41	X42	Y42	Z42	X43	Y43	Z43	X44	Y44	Z44	X45	Y45	Z45	X46	Y46	Z46	X47	Y47	Z47	X48	Y48	Z48	X49	Y49	Z49	X50	Y50	Z50	X51	Y51	Z51	X52	Y52	Z52	X53	Y53	Z53	X54	Y54	Z54	X55	Y55	Z55	X56	Y56	Z56	X57	Y57	Z57	X58	Y58	Z58	X59	Y59	Z59	X60	Y60	Z60	

912	4.555	-219.6263427734376	1800.723022460938	-630.9855957031251	-378.1092529296876	1755.661499023438	-703.8685302734376	-207.7289581298829	1805.555908203125	-773.4379882812502	-398.6950988769532	1596.381958007813	-714.0540161132814	-424.372772216797	1293.400268554688	-706.0083618164064	-243.458236694336	1544.480834960938	-702.3245849609376	-261.9510192871094	1599.547241210938	-853.264343261719	-107.6360626220703	1536.08251953125	-957.2928466796877	-84.64804077148439	1573.045654296875	-930.7163085937502	-38.71424865722657	1537.712036132813	-946.268005371094	35.65176391601563	1542.503662109375	-926.1561279296877	33.19677352905274	1485.779418945313	-888.745788574219	301.6742248535157	1582.281616210938	-885.9412231445315	396.526580810547	1579.315673828125	-804.0371093750002	-270.1524963378907	1599.68408203125	-551.9310302734376	-108.5518035888672	1510.726318359375	-459.0110778808595	-87.2572479248047	1548.572387695313	-485.0032958984376	-39.92530822753907	1518.322875976563	-466.612030029297	26.08962440490723	1509.252563476563	-482.0338745117189	27.74484062194825	1451.5322265625	-535.2587280273439	288.2709655761719	1534.85498046875	-586.6765136718751	294.0299072265626	1545.3857421875	-506.2989196777345	382.7460937500001	1561.36767578125	-577.2975463867189	-272.9024353027344	1084.596435546875	-861.9624023437502	-249.0685272216797	1067.557373046875	-621.5972900390626	-445.4609375000001	1175.35546875	-705.1290893554689	-457.7559509277345	1146.50732421875	-734.1995239257814	-447.6853942871095	1141.802368164063	-677.4409790039064	-332.8439025878907	814.5547485351565	-960.4639282226565	-299.5186157226563	736.3500366210939	-971.2490844726565	-252.4874114990235	736.0019531250001	-958.1690063476565	-326.1385192871094	682.8049316406251	-969.6280517578127	-342.6971740722657	599.0507202148439	-963.4224243164065	-293.5518188476563	566.6099853515626	-845.8755493164065	-420.3771972656251	487.8357238769532	-926.402770996094	-482.9426574707032	536.0951538085939	-949.8411865234377	-469.6563720703126	492.5358886718751	-945.3796997070315	-536.5502929687501	454.0531005859376	-909.2408447265627	-731.7561035156251	450.6699218750001	-854.5542602539065	-689.0209350585939	394.0561523437501	-793.5921630859377	-719.1464843750001	489.1412353515626	-779.5076904296877	-792.6956176757815	279.1009521484376	-811.6379394531252	-838.7232666015627	353.3931274414063	-874.9260864257815	-354.0540466308594	859.9136352539065	-557.0032348632814	-316.0993652343751	805.7373657226565	-560.8891601562501	-282.7666625976563	806.4057617187502	-563.2507934570314	-341.0307922363282	728.6343994140626	-583.3887939453126	-329.4026489257813	550.5169067382814	-615.6557006835939	-297.4256591796876	549.7128906250001	-749.3735961914064	-289.0697021484376	353.4007873535157	-718.9755859375001	-331.1149902343751	271.6332397460938	-660.2799072265626	-295.9496459960938	266.5171508789063	-693.1756591796876	-308.4064636230469	226.5643920898438	-732.0211181640626	-373.3713989257813	117.4653701782227	-699.7081909179689	-342.0327453613282	144.2025909423828	-785.872741699219	-439.725067138672	102.2074966430664	-764.6210327148439	-229.2979583740235	60.20497512817384	-776.4710083007815	-224.0548400878907	58.9202346801758	-724.3638305664064	-274.2298278808594	27.53064918518067	-672.9264526367189	-809.5820312500002	290.3554077148438	-854.3997192382815	
913	4.56	-220.2238922119141	1801.177612304688	-631.1058959960939	-378.7899475097657	1755.97607421875	-703.7127685546876	-208.2450408935547	1806.018188476563	-773.3688964843752	-399.2045288085939	1596.658447265625	-713.9935302734376	-424.4356384277345	1293.572265625	-705.8460693359376	-243.9063415527344	1544.964233398438	-702.2591552734376	-262.5432128906251	1599.967651367188	-853.2379150390627	-108.0620422363282	1536.548828125	-957.219177246094	-85.23006439208986	1573.445068359375	-930.6929321289065	-39.17014312744141	1537.998657226563	-946.245300292969	35.14931106567384	1542.907104492188	-926.0577392578127	32.48184967041016	1486.234252929688	-888.4626464843752	301.1792297363282	1582.6796875	-885.8940429687502	396.1767883300782	1579.862426757813	-804.0866699218752	-270.6502380371094	1600.2138671875	-551.6936035156251	-108.9975280761719	1511.269775390625	-458.9096069335939	-87.63372039794923	1549.214599609375	-484.8921508789064	-40.27204513549805	1518.793579101563	-466.3825683593751	25.68991279602051	1509.513061523438	-481.9584960937501	27.41837882995606	1452.054565429688	-535.2363891601564	288.0485534667969	1535.100341796875	-586.4523925781251	293.5205383300782	1545.643432617188	-506.2326660156251	382.4042663574219	1561.638427734375	-577.2331542968751	-272.7708435058594	1085.15966796875	-861.8997802734377	-248.9574584960938	1067.768920898438	-621.4776611328126	-445.1661376953126	1175.711669921875	-704.9369506835939	-457.6356201171876	1146.72216796875	-734.0875854492189	-447.4854125976564	1141.928588867188	-677.3518676757814	-332.2865905761719	815.2783813476565	-960.5527954101565	-298.8817749023438	736.9411010742189	-971.475769042969	-251.9680480957032	736.6805419921876	-958.3446044921877	-325.4910583496094	683.4754638671876	-969.7612915039065	-341.8713989257813	599.7772216796876	-963.8004150390627	-292.6067199707032	567.2890014648439	-846.2443847656252	-419.0515747070314	488.629852294922	-927.0557861328127	-482.2432861328126	536.8792114257814	-950.1448364257815	-468.8579711914064	493.1199645996095	-945.8528442382815	-536.0139770507814	454.6867065429689	-909.6504516601565	-730.8505249023439	451.0151977539064	-854.8965454101565	-688.1491699218751	394.3471984863282	-794.0349731445315	-718.5979003906251	489.2938232421876	-779.9495849609377	-792.0855102539065	279.2906188964844	-811.9794921875002	-837.5626220703127	353.6739807128907	-875.538269042969	-354.1346435546876	860.1934204101565	-557.2178344726564	-316.4779357910157	805.948669433594	-561.1412963867189	-283.0507507324219	806.290710449219	-563.5037841796876	-341.3959960937501	728.9722900390626	-583.5675659179689	-330.3418579101563	550.5812988281251	-616.0609741210939	-298.4077148437501	549.8895874023439	-749.7380371093751	-289.7759704589844	353.5378112792969	-719.3890380859376	-331.4965209960938	271.6773681640626	-660.4819335937501	-296.4547119140626	266.9050598144532	-693.4721679687501	-308.7812194824219	226.8369598388672	-732.3725585937501	-373.3677978515626	117.4790725708008	-699.8527832031251	-342.1923828125001	144.157470703125	-786.0843505859377	-439.7449340820314	102.1795654296875	-764.6973876953126	-229.3429412841797	60.05521392822267	-776.5954589843752	-224.0141906738282	58.94179916381837	-724.4581298828126	-274.1884155273438	27.51506423950196	-673.0952148437501	-808.5405883789065	290.6432189941407	-854.9318847656252	
914	4.565	-220.6669158935547	1801.425537109375	-631.4155273437501	-379.1191101074219	1756.326538085938	-703.8304443359376	-208.7948760986329	1806.393188476563	-773.4077758789065	-399.7911071777345	1597.082885742188	-713.9270019531251	-424.3552551269532	1293.700439453125	-705.7158203125001	-244.3076782226563	1545.34716796875	-702.2072143554689	-263.0812988281251	1600.350341796875	-853.2047119140627	-108.6577911376953	1536.95068359375	-957.185485839844	-85.64258575439455	1573.87060546875	-930.6489257812502	-39.54827880859376	1538.414306640625	-946.2478637695315	34.60243225097657	1543.28125	-925.9312133789065	32.14632034301759	1486.656616210938	-888.4986572265627	300.7855834960938	1583.094970703125	-885.9485473632815	396.025604248047	1580.356567382813	-804.008239746094	-271.3008117675782	1600.5341796875	-551.5307006835939	-109.6001815795899	1511.609619140625	-458.770477294922	-88.0359344482422	1549.817138671875	-484.6042785644532	-40.61405181884766	1518.9541015625	-466.4724426269532	25.31946563720704	1509.933959960938	-481.8730773925782	26.68844032287598	1452.53515625	-535.1239013671876	287.7422180175782	1535.352905273438	-586.2382202148439	293.1454772949219	1545.624389648438	-506.270477294922	382.1846008300782	1561.8134765625	-577.1157226562501	-272.5756835937501	1085.733520507813	-861.792663574219	-248.4720458984376	1068.169555664063	-621.4191894531251	-444.9284057617189	1175.915405273438	-704.7067260742189	-457.4891967773439	1147.001708984375	-733.9099731445314	-447.2930908203126	1142.078857421875	-677.2372436523439	-331.5874328613282	815.8775024414065	-960.776550292969	-298.3375244140626	737.5325927734376	-971.5572509765627	-251.2784576416016	737.3616333007814	-958.5303955078127	-324.7135009765626	684.2000732421876	-969.9393310546877	-341.0968322753907	600.3688964843751	-964.059753417969	-292.0148925781251	567.9514770507814	-846.4583740234377	-418.4742431640626	489.1272888183595	-927.2410888671877	-481.0377807617189	537.3627319335939	-950.6601562500002	-467.9879760742189	493.6820373535157	-946.1683349609377	-535.2138671875001	454.9278259277345	-909.9929199218752	-729.9614257812501	451.3046875000001	-855.438415527344	-687.1914062500001	394.9238586425782	-794.398620605469	-717.6784057617189	489.8162841796876	-780.3531494140627	-791.0425415039065	279.7862243652344	-812.4472656250002	-836.5191040039065	353.8909912109376	-875.999206542969	-354.2817993164063	860.629089355469	-557.4362182617189	-316.5422973632813	806.2305908203127	-561.4172973632814	-283.2351379394532	806.469177246094	-563.8781127929689	-342.1756591796876	729.3192749023439	-583.8670043945314	-331.3061828613282	550.8209838867189	-616.5653686523439	-299.2836303710938	550.2061157226564	-749.4090576171876	-290.3275146484376	353.6584777832032	-719.7700805664064	-331.7765197753907	271.7947692871094	-660.8992309570314	-296.9121704101563	267.1655578613282	-693.8481445312501	-309.2621459960938	226.7930603027344	-732.7174682617189	-373.4004211425782	117.5415344238282	-700.0452880859376	-342.2401428222657	144.1624145507813	-786.338562011719	-439.6924438476564	102.1914901733399	-764.8069458007814	-229.323471069336	59.96854400634767	-776.6973266601565	-224.0146179199219	58.95708084106447	-724.5671997070314	-274.1516723632813	27.57962036132813	-673.2019042968751	-807.8816528320315	290.9443664550782	-855.2352294921877	
915	4.57	-221.4073638916016	1801.924560546875	-631.3286743164064	-379.9607849121094	1756.661010742188	-703.6992797851564	-209.3603668212891	1806.938720703125	-773.3088378906252	-400.3788452148439	1597.3095703125	-713.8627319335939	-424.4329833984376	1293.807006835938	-705.5708618164064	-244.6683502197266	1545.872924804688	-702.0770263671876	-263.5328979492188	1600.719970703125	-853.1726684570315	-109.2618560791016	1537.364624023438	-957.1320800781252	-86.07025146484376	1574.27099609375	-930.6547851562502	-40.14539337158204	1538.830078125	-946.1176757812502	34.1489486694336	1543.638305664063	-925.9537353515627	31.67310905456544	1487.031005859375	-888.4058227539065	300.2179870605469	1583.369384765625	-885.917663574219	395.4449462890626	1580.428955078125	-804.1674804687502	-271.6320495605469	1600.649169921875	-551.4766235351564	-109.9698486328125	1511.938598632813	-458.6993713378907	-88.85955810546876	1549.926879882813	-484.3812866210939	-40.96653747558594	1519.32470703125	-466.4089965820314	24.85214614868165	1510.274047851563	-481.8319396972657	26.34358024597169	1452.876586914063	-535.0789794921876	287.0905456542969	1535.464233398438	-586.2269287109376	292.8192749023438	1545.751342773438	-506.1740722656251	381.8207702636719	1562.120239257813	-576.9629516601564	-272.4104919433594	1086.3642578125	-861.6517333984377	-248.2698669433594	1068.511840820313	-621.3369750976564	-444.6992797851564	1176.0712890625	-704.5136718750001	-457.3491210937501	1147.229125976563	-733.6984252929689	-447.0206604003907	1142.266235351563	-677.1328735351564	-330.9367370605469	816.5913085937502	-960.9918212890627	-297.5839843750001	738.3780517578126	-971.917663574219	-250.6137695312501	738.0976562500001	-958.6721801757815	-323.8843078613282	684.8762207031251	-970.336853027344	-340.3785705566407	600.8760375976564	-964.3461914062502	-291.4132080078126	568.5105590820314	-846.6656494140627	-417.8753662109376	489.657440185547	-927.4517211914065	-480.243133544922	537.5897827148439	-950.9129638671877	-467.2536926269532	494.142547607422	-946.457702636719	-534.5095825195314	455.3400878906251	-910.1707153320315	-729.0216674804689	451.7337646484376	-855.858337402344	-686.2334594726564	395.1357727050782	-794.8648071289065	-716.9176025390626	489.827606201172	-780.9341430664065	-789.9993286132815	279.9883117675782	-812.8575439453127	-835.1035156250002	354.2316589355469	-876.5495605468752	-354.3422851562501	860.9780883789065	-557.7567138671876	-316.6380310058594	806.4086914062502	-561.7133178710939	-283.8125000000001	806.6143188476565	-564.1054687500001	-342.6612854003907	729.4674682617189	-584.1350097656251	-332.2239074707032	550.9508056640626	-616.9015502929689	-300.6290893554688	550.0944824218751	-750.6720581054689	-291.0295410156251	353.6848754882813	-720.1619873046876	-332.1381530761719	271.7956848144532	-661.1420288085939	-297.4539794921876	267.1381835937501	-694.1638183593751	-309.6996154785157	226.9076538085938	-733.0279541015626	-373.3388671875001	117.6392669677735	-700.2871704101564	-342.3651733398438	144.1256713867188	-786.6074829101565	-439.6754455566407	102.1860504150391	-764.8992919921876	-229.2620086669922	59.89437866210939	-776.7885742187502	-223.9650573730469	58.96322250366212	-724.6789550781251	-274.1999816894532	27.57529258728028	-673.3378906250001	-806.9228515625002	291.3631286621094	-855.6736450195315	
